# xmcd
#
# Track frame offsets:
#	150
#	19616
#	33962
#	47754
#	65431
#	82438
#	99291
#	112721
#	133180
#	152072
#	166477
#	180576
#	197152
#	213139
#	228462
#
# Disc length: 3266 seconds
#
# Revision: 1
# Processed by: cddbd v1.5.1PL2 Copyright (c) Steve Scherf et al.
# Submitted via: audiograbber 1.83.01
#
DISCID=c20cc00f
DTITLE=Chartbuster - cb60126
DYEAR=1900
DGENRE=
TTITLE0=Alabama - There's No Way
TTITLE1=Milsap, Ronnie - Snap Your Fingers
TTITLE2=Frickie, Janie - She's Single Again
TTITLE3=Gosdin, Vern - Chiseled In Stone
TTITLE4=Nelson, Willie and Iglesias, Juloi - To All The Girls I've Loved Before
TTITLE5=Mandrell, Barbara - Only A Lonely Heart Knows
TTITLE6=Greenwood, Lee - You've Got A Good Love Coming
TTITLE7=Rogers, Kenny - Buried Treasure
TTITLE8=Hill, Faith - Cry
TTITLE9=Williams, Hank Jr - Heaven Can't Be Found
TTITLE10=Lovett, Lyle - I Loved You Yesterday
TTITLE11=Parton, Dolly and Harris, Emmylou and Ronstadt, Linda - To Know Him Is To 
TTITLE11=Love Him
TTITLE12=Alabama - Why Lady Why
TTITLE13=Judds - Change Of Heart
TTITLE14=Harris, Emmylou - Wayfaring Stranger
EXTD=
EXTT0=
EXTT1=
EXTT2=
EXTT3=
EXTT4=
EXTT5=
EXTT6=
EXTT7=
EXTT8=
EXTT9=
EXTT10=
EXTT11=
EXTT12=
EXTT13=
EXTT14=
PLAYORDER=
